<?xml version="1.0" standalone="no"?><!DOCTYPE svg PUBLIC "-//W3C//DTD SVG 1.1//EN" "http://www.w3.org/Graphics/SVG/1.1/DTD/svg11.dtd"><svg t="1648563767045" class="icon" viewBox="0 0 1024 1024" version="1.1" xmlns="http://www.w3.org/2000/svg" p-id="1302" xmlns:xlink="http://www.w3.org/1999/xlink" width="200" height="200"><defs><style type="text/css"></style></defs><path d="M973.4 1005.5l16 16.1 32.2-32.2-16.1-16L50.6 18.5l-16-16.1-32.2 32.2 16.1 16z" fill="#666666" p-id="1303"></path><path d="M239.3 421.1c0-100.4 81.4-181.8 181.8-181.8s181.8 81.4 181.8 181.8-81.4 181.8-181.8 181.8-181.8-81.4-181.8-181.8zM512 693.8C512 593.4 593.4 512 693.8 512s181.8 81.4 181.8 181.8-81.4 181.8-181.8 181.8S512 794.2 512 693.8z" fill="#666666" p-id="1304"></path><path d="M421.1 557.4c75.3 0 136.3-61 136.3-136.3s-61-136.3-136.3-136.3-136.3 61-136.3 136.3 61 136.3 136.3 136.3z m272.7 272.7c75.3 0 136.3-61 136.3-136.3s-61-136.3-136.3-136.3-136.3 61-136.3 136.3 61 136.3 136.3 136.3z" fill="#E1EDFF" p-id="1305"></path><path d="M57.6 314.6c-35.5-35.5-35.5-93 0-128.5L186.1 57.6c35.5-35.5 93-35.5 128.5 0L443.2 186.1c35.5 35.5 35.5 93 0 128.5L314.6 443.2c-35.5 35.5-93 35.5-128.5 0L57.6 314.6z m318.1 400.8c-35.5-35.5-35.5-93 0-128.5l211.2-211.2c35.5-35.5 93-35.5 128.5 0l43.8 43.8c35.5 35.5 35.5 93 0 128.5L548 759.2c-35.5 35.5-93 35.5-128.5 0l-43.8-43.8z" fill="#666666" p-id="1306"></path><path d="M89.7 282.5c-17.7-17.7-17.8-46.5 0-64.3L218.2 89.7c17.7-17.7 46.5-17.8 64.3 0L411 218.2c17.7 17.7 17.8 46.5 0 64.3L282.5 411c-17.7 17.7-46.5 17.8-64.3 0L89.7 282.5z m318.1 400.7c-17.8-17.8-17.8-46.5 0-64.3L619 407.8c17.7-17.7 46.5-17.8 64.3 0l43.8 43.8c17.8 17.8 17.8 46.5 0 64.3L515.9 727.1c-17.7 17.7-46.5 17.8-64.3 0l-43.8-43.9z" fill="#FFF1DB" p-id="1307"></path></svg>